<svg width="64" height="64" viewBox="0 0 64 64" fill="none" xmlns="http://www.w3.org/2000/svg">
<g filter="url(#filter0_d)">
<path d="M59.3 27.7C59.3 42.9 46.9 55.3 31.6 55.3C16.4 55.3 4 42.9 4 27.7C4 12.4 16.4 0 31.6 0C46.9 0 59.3 12.4 59.3 27.7Z" fill="url(#paint0_radial)"/>
<path d="M49.4002 37.7981C49.1002 36.8981 50.0002 36.3981 50.3002 35.6981C50.6002 35.3981 51.1003 35.3981 51.5003 35.6981C52.2003 35.3981 53.1002 34.3981 53.6002 35.1981C54.1002 35.9981 53.1002 36.7981 52.3002 37.2981C51.4002 37.9981 50.4002 37.9981 49.4002 37.7981Z" fill="url(#paint1_linear)"/>
<g filter="url(#filter1_d)">
<path d="M12.3003 18.3984C12.2003 16.6984 10.9003 15.1984 11.7003 13.3984C12.0003 12.7984 12.1003 11.9984 12.9003 11.3984C13.7003 12.8984 13.4003 14.2985 13.3003 15.7985C13.2336 15.9985 13.4336 16.0318 13.9003 15.8984C14.2003 15.8984 14.3003 15.9985 14.2003 16.1985C14.1003 17.1985 13.0003 17.6985 13.0003 18.7985C13.1003 18.9985 13.0003 19.1985 12.9003 19.1985C12.4003 19.1985 12.4003 18.6984 12.3003 18.3984Z" fill="url(#paint2_linear)"/>
</g>
<g filter="url(#filter2_d)">
<path d="M10.1 26.6012C10.1 25.3012 10.1 23.9011 9.29998 22.7011C8.99998 22.4011 8.89996 21.8011 8.89996 21.4011C8.89996 20.4011 8.69998 19.1012 9.79998 19.0012C10.7 18.9012 10.3 20.3012 10.5 21.1012C10.6 21.2011 10.5 21.5012 10.8 21.5012C10.9 21.5012 11 21.3011 11.1 21.3011C11.2 21.3011 11.3 21.2011 11.4 21.2011C11.2 22.0011 11.1 22.8012 10.9 23.6012C10.5 24.4012 11.3 25.1011 11.2 25.9011C11 26.4011 10.8 26.9012 10.1 26.6012Z" fill="url(#paint3_linear)"/>
</g>
<g filter="url(#filter3_d)">
<path d="M10.5008 28.6974C10.7008 29.4974 10.9008 30.2975 11.1008 31.0975C11.3008 31.2975 11.3008 31.4974 11.2008 31.7974C11.1008 31.7974 11.0008 31.8975 11.0008 31.9975C9.30079 30.7975 7.30078 29.9975 7.30078 27.4975C8.70078 26.9975 8.80081 29.2974 10.2008 28.6974H10.5008Z" fill="url(#paint4_linear)"/>
</g>
<g filter="url(#filter4_d)">
<path d="M12.2 35.7C12.2 34.3 11 33.3 11 32C11.5 31.7 11.5 31.2 11.7 30.7C11.9 30.1 11.9 29.4 12.7 29C13.9 31.3 12.5 33.5 12.6 35.7C12.5 35.8 12.3 35.8 12.2 35.7Z" fill="url(#paint5_linear)"/>
</g>
<g filter="url(#filter5_d)">
<path d="M12.2 35.6996H12.6C13.2 36.3996 14 36.7996 14.3 37.7996C12.8 37.9996 11.4 37.8996 10.3 36.6996C10 36.2996 9.3 35.6997 9.8 35.0997C10.2 34.4997 10.8 35.0996 11.2 35.2996C11.6 35.3996 11.9 35.4996 12.2 35.6996Z" fill="url(#paint6_linear)"/>
</g>
<g filter="url(#filter6_d)">
<path d="M14.9004 14.6C15.7004 13.5 16.3004 12.3999 17.2004 11.3999C17.7004 10.8999 18.4004 10.3999 19.4004 10.6999C19.2004 13.1 17.2004 13.6999 15.5004 14.6999C15.3004 14.7999 15.1004 14.8 14.9004 14.6Z" fill="url(#paint7_linear)"/>
</g>
<g filter="url(#filter7_d)">
<path d="M11.4006 21.2005C11.3006 21.2005 11.2006 21.3004 11.1006 21.3004C11.2006 20.2004 11.8006 19.3004 12.3006 18.4004C12.6006 18.3004 12.5006 19.3004 13.0006 18.8004C13.9006 18.4004 14.8006 17.1005 15.5006 18.1005C15.9006 18.6005 14.6006 19.6005 13.7006 20.1005C13.0006 20.6005 12.2006 20.9005 11.4006 21.2005Z" fill="url(#paint8_linear)"/>
</g>
<g filter="url(#filter8_d)">
<path d="M19.1006 43.1981C17.2006 42.9981 15.1006 43.6981 13.6006 41.4981H16.3006C16.5006 41.2981 16.7006 41.198 17.0006 41.398C17.9006 41.398 18.3006 42.4981 19.2006 42.6981C19.4006 42.6981 19.6006 42.6981 19.6006 42.9981C19.5006 43.2981 19.3006 43.3981 19.1006 43.1981Z" fill="url(#paint9_linear)"/>
</g>
<g filter="url(#filter9_d)">
<path d="M10.5002 28.6992H10.2003C10.0003 27.9992 9.90022 27.2992 10.1002 26.5992C10.6002 26.3992 10.9002 26.1992 10.9002 25.6992C10.6002 25.0992 11.0002 24.7993 11.3002 24.4993C11.8002 24.0993 12.1002 23.3992 13.0002 23.1992C12.9002 24.7992 12.4002 26.0992 11.4002 27.1992C11.0002 27.5992 10.5002 27.9992 10.5002 28.6992Z" fill="url(#paint10_linear)"/>
</g>
<g filter="url(#filter10_d)">
<path d="M17.0007 41.3984C16.7007 41.3984 16.5007 41.3985 16.3007 41.4985C16.2007 41.1985 16.2007 40.8985 16.1007 40.6985C14.6007 39.5985 14.5007 38.0984 15.3007 36.3984C17.0007 37.6984 16.7007 39.6984 17.0007 41.3984Z" fill="url(#paint11_linear)"/>
</g>
<g filter="url(#filter11_d)">
<path d="M19.1 43.2C19.3 43.1 19.6 43 19.2 42.7C19.1 42 19.1 41.3 19 40.5C21.1 41.1 20.8 43.3999 22.1 44.3999C22.2 44.4999 22.3 44.6 22.2 44.6C22.2 44.6666 22.1666 44.7 22.1 44.7C20.9 44.6 19.9 44 19.1 43.2Z" fill="url(#paint12_linear)"/>
</g>
<g filter="url(#filter12_d)">
<path d="M14.9004 14.5977C15.1004 14.5977 15.3004 14.5976 15.5004 14.6976C15.1004 15.1976 14.7004 15.6976 14.2004 16.1976C14.1004 16.0976 14.0004 15.9976 13.9004 15.8976C14.0004 15.2976 14.5004 14.9977 14.9004 14.5977Z" fill="url(#paint13_linear)"/>
</g>
<g filter="url(#filter13_d)">
<path d="M13.8008 37.5992C13.8674 37.4659 13.9008 37.3326 13.9008 37.1992C14.4008 37.7992 14.9008 38.3992 15.3008 38.8992C15.2008 38.9992 15.2008 39.0992 15.1008 39.0992C14.4008 38.8992 14.1008 38.0992 13.8008 37.5992Z" fill="url(#paint14_linear)"/>
</g>
<g filter="url(#filter14_d)">
<path d="M11.3004 24.4977C11.2004 24.8977 11.1004 25.2976 10.9004 25.6976C10.2004 24.9976 10.5004 24.2977 10.9004 23.5977C11.1004 23.8977 11.2004 24.1977 11.3004 24.4977Z" fill="url(#paint15_linear)"/>
</g>
<g filter="url(#filter15_d)">
<path d="M11.7 30.6992C11.5 31.1992 12.5 32.3993 11 31.9993C11 31.6993 11 31.3992 11.1 31.0992C11.3 30.9992 11.5 30.7992 11.7 30.6992Z" fill="url(#paint16_linear)"/>
</g>
<g filter="url(#filter16_d)">
<path d="M50.1006 12.198C50.3006 11.498 50.6006 11.2981 51.0006 11.9981C51.8006 13.3981 52.1006 14.9981 51.5006 16.5981C51.3006 17.2981 50.7006 17.898 51.2006 18.698C50.7006 19.098 50.4006 18.798 50.1006 18.298C49.9006 17.798 49.7006 17.298 49.6006 16.698C49.6006 16.498 49.6006 16.2981 49.6006 16.0981C50.3006 14.8981 49.7006 13.398 50.1006 12.198Z" fill="url(#paint17_linear)"/>
</g>
<g filter="url(#filter17_d)">
<path d="M52.7005 31.6C52.2005 32.7 51.8005 33.6999 51.3005 34.7999C50.5005 34.9999 50.9005 34.3 50.7005 34C49.9005 32.4 50.0005 30.7 50.5005 29C51.9005 29.5 51.2005 31.1 52.3005 31.6C52.4005 31.4 52.5005 31.4 52.7005 31.6Z" fill="url(#paint18_linear)"/>
</g>
<g filter="url(#filter18_d)">
<path d="M50.1008 18.3012C50.5008 18.5012 50.9008 18.6012 51.2008 18.7012C51.7008 19.3012 52.0008 20.0012 52.1008 20.9012C49.9008 20.7012 48.4008 19.6012 47.3008 17.7012C48.4008 17.3012 49.2008 18.4012 50.1008 18.3012Z" fill="url(#paint19_linear)"/>
</g>
<g filter="url(#filter19_d)">
<path d="M48.3005 14.4002C46.2005 14.1002 45.0005 13.3002 44.2005 11.8002C44.0005 11.4002 43.7005 11.0002 44.1005 10.7002C44.4005 10.4002 44.9005 10.7002 45.2005 10.8002C46.8005 11.4002 47.2005 13.0002 48.3005 14.4002Z" fill="url(#paint20_linear)"/>
</g>
<g filter="url(#filter20_d)">
<path d="M52.7007 31.5985H52.3007C52.1007 30.6985 52.6007 29.8985 52.7007 29.0985C53.0007 28.9985 53.2007 29.0984 53.4007 29.3984C54.2007 28.6984 54.6007 27.5984 56.0007 27.3984C55.9007 29.7984 54.5007 30.7985 52.7007 31.5985Z" fill="url(#paint21_linear)"/>
</g>
<g filter="url(#filter21_d)">
<path d="M53.0002 19.8997C53.1002 19.4997 53.0002 18.9997 53.5002 18.8997C54.0002 18.7997 54.1002 19.2997 54.3002 19.6997C54.6002 20.4997 54.5001 21.2997 54.4001 22.0997C54.2001 22.8997 53.9002 23.9998 53.1002 23.9998C52.3002 23.9998 52.3002 22.8997 52.2002 22.0997C52.9002 21.4997 52.8002 20.6997 53.0002 19.8997Z" fill="url(#paint22_linear)"/>
</g>
<g filter="url(#filter22_d)">
<path d="M49.4007 37.7985C48.7007 38.9985 47.9007 40.1984 46.6007 41.3984C46.3007 39.1984 46.8007 37.7984 48.0007 36.3984C48.8007 37.0984 48.2007 37.7984 48.2007 38.3984C48.6007 38.1984 49.0007 37.9985 49.4007 37.7985Z" fill="url(#paint23_linear)"/>
</g>
<g filter="url(#filter23_d)">
<path d="M44.7002 42.5985C45.9002 40.6985 47.9001 41.7984 49.9001 41.3984C48.5001 43.1984 47.0002 43.4985 45.2002 42.9985C45.0002 42.8985 44.7002 42.8985 44.7002 42.5985Z" fill="url(#paint24_linear)"/>
</g>
<g filter="url(#filter24_d)">
<path d="M41.1004 44.4985C42.3004 44.0985 42.0004 42.8985 42.5004 42.0985C43.0004 41.4985 43.4004 40.7984 44.2004 40.3984C44.8004 41.2984 43.8004 41.9985 44.0004 42.7985C44.1004 42.9985 44.0004 43.2985 43.9004 43.4985C43.1004 44.1985 42.2004 44.6985 41.1004 44.7985C41.0004 44.6985 40.9004 44.5985 41.0004 44.5985C41.0004 44.4985 41.1004 44.4985 41.1004 44.4985Z" fill="url(#paint25_linear)"/>
</g>
<g filter="url(#filter25_d)">
<path d="M52.7002 27.7999C51.2002 26.6999 50.6002 25.2 50.2002 23C51.4002 23.7 51.9002 24.3999 52.3002 25.2999C52.8002 25.5999 53.2002 25.8999 53.3002 26.3999C53.0002 26.8999 53.8002 27.6999 52.7002 27.7999Z" fill="url(#paint26_linear)"/>
</g>
<g filter="url(#filter26_d)">
<path d="M50.1002 12.1992C49.8002 13.6992 50.7002 15.2992 49.8002 16.6992C49.5002 16.2992 49.1002 15.9993 49.4002 15.4993C50.3002 14.4993 49.2002 13.0992 50.1002 12.1992Z" fill="url(#paint27_linear)"/>
</g>
<path d="M52.7002 27.7985C53.3002 27.3985 53.0002 26.7985 53.0002 26.2985C53.1002 26.0985 53.3001 26.0985 53.4001 26.1985V29.3985C53.1001 29.5985 53.0002 29.1985 52.7002 29.0985C52.7002 28.6985 52.7002 28.2985 52.7002 27.7985Z" fill="url(#paint28_linear)"/>
<path d="M52.9998 19.8984C52.8998 20.6984 53.8998 21.8985 52.1998 22.0985C51.5998 20.9985 53.3998 20.8984 52.9998 19.8984Z" fill="url(#paint29_linear)"/>
<g filter="url(#filter27_d)">
<path d="M49.4008 15.4978C49.5008 15.8978 49.6008 16.2977 49.8008 16.6977L49.7008 16.7977L49.6008 16.6977C49.0008 16.1977 48.5008 15.6978 47.8008 14.9978C48.9008 14.4978 49.0008 15.2978 49.4008 15.4978Z" fill="url(#paint30_linear)"/>
</g>
<g filter="url(#filter28_d)">
<path d="M53.4008 26.2006C53.3008 26.2006 53.2008 26.2005 53.0008 26.3005C52.7008 26.0005 52.4008 25.7005 52.3008 25.3005C53.7008 24.4005 53.5008 25.4006 53.4008 26.2006Z" fill="url(#paint31_linear)"/>
</g>
<g filter="url(#filter29_d)">
<path d="M51.5008 35.7C51.1008 35.7 50.7008 35.7 50.3008 35.7C50.4008 35.2 50.9008 34.7 50.7008 34C50.9008 34.3 51.1008 34.5999 51.3008 34.7999C51.4008 35.0999 51.4008 35.4 51.5008 35.7Z" fill="url(#paint32_linear)"/>
</g>
<g filter="url(#filter30_d)">
<path d="M43.9002 43.4977C43.5002 43.2977 44.0002 42.9976 44.0002 42.7976C44.2002 42.6976 44.4003 42.6977 44.7003 42.5977C44.8003 42.7977 45.0003 42.8977 45.2003 42.9977C44.8003 43.1977 44.4002 43.3977 43.9002 43.4977Z" fill="url(#paint33_linear)"/>
</g>
<path d="M46.1002 41.9993L45.7002 41.8992C46.2002 41.2992 46.6002 40.7992 47.1002 40.1992C47.2002 40.3992 47.3001 40.2993 47.4001 40.4993C47.2001 41.0993 46.5002 41.5993 46.1002 41.9993Z" fill="url(#paint34_linear)"/>
<g filter="url(#filter31_d)">
<path d="M48.8004 38.6008L48.4004 38.5009C48.9004 37.9009 49.4004 37.4008 49.9004 36.8008C49.9004 36.9008 50.0004 36.9009 50.1004 37.0009C49.9004 37.7009 49.3004 38.2008 48.8004 38.6008Z" fill="url(#paint35_linear)"/>
</g>
<g filter="url(#filter32_d)">
<path d="M53.3008 25.5977C53.1674 25.6643 53.0675 25.7309 53.0008 25.7976C52.9008 25.0976 52.9008 24.3977 52.8008 23.5977C52.9341 23.5977 53.0675 23.5977 53.2008 23.5977C53.5008 24.1977 53.4008 24.9977 53.3008 25.5977Z" fill="url(#paint36_linear)"/>
</g>
<g filter="url(#filter33_d)">
<path d="M52.9006 21.5985C52.8339 21.7318 52.7673 21.8652 52.7006 21.9985C52.3006 21.2985 51.9006 20.6985 51.6006 20.0985C51.7006 19.9985 51.7006 19.8984 51.9006 19.8984C52.5006 20.2984 52.7006 21.0985 52.9006 21.5985Z" fill="url(#paint37_linear)"/>
</g>
<g filter="url(#filter34_d)">
<path d="M48.8002 15.0977L48.7002 15.4977C48.2002 14.8977 47.7002 14.3976 47.2002 13.7976C47.4002 13.7976 47.3002 13.6977 47.5002 13.5977C48.1002 13.8977 48.5002 14.5977 48.8002 15.0977Z" fill="url(#paint38_linear)"/>
</g>
<g filter="url(#filter35_d)">
<path d="M23.48 23.18V27.44H30.24V29.64H23.48V35H20.88V21H31.1V23.18H23.48ZM36.2144 23.18V27.44H42.9744V29.64H36.2144V35H33.6144V21H43.8344V23.18H36.2144Z" fill="url(#paint39_linear)"/>
</g>
</g>
<defs>
<filter id="filter0_d" x="0" y="0" width="63.3" height="63.3" filterUnits="userSpaceOnUse" color-interpolation-filters="sRGB">
<feFlood flood-opacity="0" result="BackgroundImageFix"/>
<feColorMatrix in="SourceAlpha" type="matrix" values="0 0 0 0 0 0 0 0 0 0 0 0 0 0 0 0 0 0 127 0"/>
<feOffset dy="4"/>
<feGaussianBlur stdDeviation="2"/>
<feColorMatrix type="matrix" values="0 0 0 0 0 0 0 0 0 0 0 0 0 0 0 0 0 0 0.25 0"/>
<feBlend mode="normal" in2="BackgroundImageFix" result="effect1_dropShadow"/>
<feBlend mode="normal" in="SourceGraphic" in2="effect1_dropShadow" result="shape"/>
</filter>
<filter id="filter1_d" x="8.44141" y="11.3984" width="8.79642" height="14.8" filterUnits="userSpaceOnUse" color-interpolation-filters="sRGB">
<feFlood flood-opacity="0" result="BackgroundImageFix"/>
<feColorMatrix in="SourceAlpha" type="matrix" values="0 0 0 0 0 0 0 0 0 0 0 0 0 0 0 0 0 0 127 0"/>
<feOffset dy="4"/>
<feGaussianBlur stdDeviation="1.5"/>
<feColorMatrix type="matrix" values="0 0 0 0 0 0 0 0 0 0 0 0 0 0 0 0 0 0 0.62 0"/>
<feBlend mode="normal" in2="BackgroundImageFix" result="effect1_dropShadow"/>
<feBlend mode="normal" in="SourceGraphic" in2="effect1_dropShadow" result="shape"/>
</filter>
<filter id="filter2_d" x="5.88574" y="18.9961" width="8.51422" height="14.6956" filterUnits="userSpaceOnUse" color-interpolation-filters="sRGB">
<feFlood flood-opacity="0" result="BackgroundImageFix"/>
<feColorMatrix in="SourceAlpha" type="matrix" values="0 0 0 0 0 0 0 0 0 0 0 0 0 0 0 0 0 0 127 0"/>
<feOffset dy="4"/>
<feGaussianBlur stdDeviation="1.5"/>
<feColorMatrix type="matrix" values="0 0 0 0 0 0 0 0 0 0 0 0 0 0 0 0 0 0 0.62 0"/>
<feBlend mode="normal" in2="BackgroundImageFix" result="effect1_dropShadow"/>
<feBlend mode="normal" in="SourceGraphic" in2="effect1_dropShadow" result="shape"/>
</filter>
<filter id="filter3_d" x="4.30078" y="27.4258" width="9.9657" height="11.5717" filterUnits="userSpaceOnUse" color-interpolation-filters="sRGB">
<feFlood flood-opacity="0" result="BackgroundImageFix"/>
<feColorMatrix in="SourceAlpha" type="matrix" values="0 0 0 0 0 0 0 0 0 0 0 0 0 0 0 0 0 0 127 0"/>
<feOffset dy="4"/>
<feGaussianBlur stdDeviation="1.5"/>
<feColorMatrix type="matrix" values="0 0 0 0 0 0 0 0 0 0 0 0 0 0 0 0 0 0 0.62 0"/>
<feBlend mode="normal" in2="BackgroundImageFix" result="effect1_dropShadow"/>
<feBlend mode="normal" in="SourceGraphic" in2="effect1_dropShadow" result="shape"/>
</filter>
<filter id="filter4_d" x="8" y="29" width="8.18875" height="13.775" filterUnits="userSpaceOnUse" color-interpolation-filters="sRGB">
<feFlood flood-opacity="0" result="BackgroundImageFix"/>
<feColorMatrix in="SourceAlpha" type="matrix" values="0 0 0 0 0 0 0 0 0 0 0 0 0 0 0 0 0 0 127 0"/>
<feOffset dy="4"/>
<feGaussianBlur stdDeviation="1.5"/>
<feColorMatrix type="matrix" values="0 0 0 0 0 0 0 0 0 0 0 0 0 0 0 0 0 0 0.62 0"/>
<feBlend mode="normal" in2="BackgroundImageFix" result="effect1_dropShadow"/>
<feBlend mode="normal" in="SourceGraphic" in2="effect1_dropShadow" result="shape"/>
</filter>
<filter id="filter5_d" x="6.625" y="34.8398" width="10.675" height="10.041" filterUnits="userSpaceOnUse" color-interpolation-filters="sRGB">
<feFlood flood-opacity="0" result="BackgroundImageFix"/>
<feColorMatrix in="SourceAlpha" type="matrix" values="0 0 0 0 0 0 0 0 0 0 0 0 0 0 0 0 0 0 127 0"/>
<feOffset dy="4"/>
<feGaussianBlur stdDeviation="1.5"/>
<feColorMatrix type="matrix" values="0 0 0 0 0 0 0 0 0 0 0 0 0 0 0 0 0 0 0.62 0"/>
<feBlend mode="normal" in2="BackgroundImageFix" result="effect1_dropShadow"/>
<feBlend mode="normal" in="SourceGraphic" in2="effect1_dropShadow" result="shape"/>
</filter>
<filter id="filter6_d" x="11.9004" y="10.6094" width="10.5" height="11.1563" filterUnits="userSpaceOnUse" color-interpolation-filters="sRGB">
<feFlood flood-opacity="0" result="BackgroundImageFix"/>
<feColorMatrix in="SourceAlpha" type="matrix" values="0 0 0 0 0 0 0 0 0 0 0 0 0 0 0 0 0 0 127 0"/>
<feOffset dy="4"/>
<feGaussianBlur stdDeviation="1.5"/>
<feColorMatrix type="matrix" values="0 0 0 0 0 0 0 0 0 0 0 0 0 0 0 0 0 0 0.62 0"/>
<feBlend mode="normal" in2="BackgroundImageFix" result="effect1_dropShadow"/>
<feBlend mode="normal" in="SourceGraphic" in2="effect1_dropShadow" result="shape"/>
</filter>
<filter id="filter7_d" x="8.10059" y="17.7305" width="10.4745" height="10.57" filterUnits="userSpaceOnUse" color-interpolation-filters="sRGB">
<feFlood flood-opacity="0" result="BackgroundImageFix"/>
<feColorMatrix in="SourceAlpha" type="matrix" values="0 0 0 0 0 0 0 0 0 0 0 0 0 0 0 0 0 0 127 0"/>
<feOffset dy="4"/>
<feGaussianBlur stdDeviation="1.5"/>
<feColorMatrix type="matrix" values="0 0 0 0 0 0 0 0 0 0 0 0 0 0 0 0 0 0 0.62 0"/>
<feBlend mode="normal" in2="BackgroundImageFix" result="effect1_dropShadow"/>
<feBlend mode="normal" in="SourceGraphic" in2="effect1_dropShadow" result="shape"/>
</filter>
<filter id="filter8_d" x="10.6006" y="41.2891" width="12" height="9.0131" filterUnits="userSpaceOnUse" color-interpolation-filters="sRGB">
<feFlood flood-opacity="0" result="BackgroundImageFix"/>
<feColorMatrix in="SourceAlpha" type="matrix" values="0 0 0 0 0 0 0 0 0 0 0 0 0 0 0 0 0 0 127 0"/>
<feOffset dy="4"/>
<feGaussianBlur stdDeviation="1.5"/>
<feColorMatrix type="matrix" values="0 0 0 0 0 0 0 0 0 0 0 0 0 0 0 0 0 0 0.62 0"/>
<feBlend mode="normal" in2="BackgroundImageFix" result="effect1_dropShadow"/>
<feBlend mode="normal" in="SourceGraphic" in2="effect1_dropShadow" result="shape"/>
</filter>
<filter id="filter9_d" x="6.99121" y="23.1992" width="9.00903" height="12.5" filterUnits="userSpaceOnUse" color-interpolation-filters="sRGB">
<feFlood flood-opacity="0" result="BackgroundImageFix"/>
<feColorMatrix in="SourceAlpha" type="matrix" values="0 0 0 0 0 0 0 0 0 0 0 0 0 0 0 0 0 0 127 0"/>
<feOffset dy="4"/>
<feGaussianBlur stdDeviation="1.5"/>
<feColorMatrix type="matrix" values="0 0 0 0 0 0 0 0 0 0 0 0 0 0 0 0 0 0 0.62 0"/>
<feBlend mode="normal" in2="BackgroundImageFix" result="effect1_dropShadow"/>
<feBlend mode="normal" in="SourceGraphic" in2="effect1_dropShadow" result="shape"/>
</filter>
<filter id="filter10_d" x="11.8047" y="36.3984" width="8.19602" height="12.1001" filterUnits="userSpaceOnUse" color-interpolation-filters="sRGB">
<feFlood flood-opacity="0" result="BackgroundImageFix"/>
<feColorMatrix in="SourceAlpha" type="matrix" values="0 0 0 0 0 0 0 0 0 0 0 0 0 0 0 0 0 0 127 0"/>
<feOffset dy="4"/>
<feGaussianBlur stdDeviation="1.5"/>
<feColorMatrix type="matrix" values="0 0 0 0 0 0 0 0 0 0 0 0 0 0 0 0 0 0 0.62 0"/>
<feBlend mode="normal" in2="BackgroundImageFix" result="effect1_dropShadow"/>
<feBlend mode="normal" in="SourceGraphic" in2="effect1_dropShadow" result="shape"/>
</filter>
<filter id="filter11_d" x="16" y="40.5" width="9.24143" height="11.2" filterUnits="userSpaceOnUse" color-interpolation-filters="sRGB">
<feFlood flood-opacity="0" result="BackgroundImageFix"/>
<feColorMatrix in="SourceAlpha" type="matrix" values="0 0 0 0 0 0 0 0 0 0 0 0 0 0 0 0 0 0 127 0"/>
<feOffset dy="4"/>
<feGaussianBlur stdDeviation="1.5"/>
<feColorMatrix type="matrix" values="0 0 0 0 0 0 0 0 0 0 0 0 0 0 0 0 0 0 0.62 0"/>
<feBlend mode="normal" in2="BackgroundImageFix" result="effect1_dropShadow"/>
<feBlend mode="normal" in="SourceGraphic" in2="effect1_dropShadow" result="shape"/>
</filter>
<filter id="filter12_d" x="10.9004" y="14.5977" width="7.60004" height="8.59998" filterUnits="userSpaceOnUse" color-interpolation-filters="sRGB">
<feFlood flood-opacity="0" result="BackgroundImageFix"/>
<feColorMatrix in="SourceAlpha" type="matrix" values="0 0 0 0 0 0 0 0 0 0 0 0 0 0 0 0 0 0 127 0"/>
<feOffset dy="4"/>
<feGaussianBlur stdDeviation="1.5"/>
<feColorMatrix type="matrix" values="0 0 0 0 0 0 0 0 0 0 0 0 0 0 0 0 0 0 0.62 0"/>
<feBlend mode="normal" in2="BackgroundImageFix" result="effect1_dropShadow"/>
<feBlend mode="normal" in="SourceGraphic" in2="effect1_dropShadow" result="shape"/>
</filter>
<filter id="filter13_d" x="10.8008" y="37.1992" width="7.5" height="8.90002" filterUnits="userSpaceOnUse" color-interpolation-filters="sRGB">
<feFlood flood-opacity="0" result="BackgroundImageFix"/>
<feColorMatrix in="SourceAlpha" type="matrix" values="0 0 0 0 0 0 0 0 0 0 0 0 0 0 0 0 0 0 127 0"/>
<feOffset dy="4"/>
<feGaussianBlur stdDeviation="1.5"/>
<feColorMatrix type="matrix" values="0 0 0 0 0 0 0 0 0 0 0 0 0 0 0 0 0 0 0.62 0"/>
<feBlend mode="normal" in2="BackgroundImageFix" result="effect1_dropShadow"/>
<feBlend mode="normal" in="SourceGraphic" in2="effect1_dropShadow" result="shape"/>
</filter>
<filter id="filter14_d" x="7.48047" y="23.5977" width="6.81993" height="9.09998" filterUnits="userSpaceOnUse" color-interpolation-filters="sRGB">
<feFlood flood-opacity="0" result="BackgroundImageFix"/>
<feColorMatrix in="SourceAlpha" type="matrix" values="0 0 0 0 0 0 0 0 0 0 0 0 0 0 0 0 0 0 127 0"/>
<feOffset dy="4"/>
<feGaussianBlur stdDeviation="1.5"/>
<feColorMatrix type="matrix" values="0 0 0 0 0 0 0 0 0 0 0 0 0 0 0 0 0 0 0.62 0"/>
<feBlend mode="normal" in2="BackgroundImageFix" result="effect1_dropShadow"/>
<feBlend mode="normal" in="SourceGraphic" in2="effect1_dropShadow" result="shape"/>
</filter>
<filter id="filter15_d" x="8" y="30.6992" width="6.84342" height="8.38028" filterUnits="userSpaceOnUse" color-interpolation-filters="sRGB">
<feFlood flood-opacity="0" result="BackgroundImageFix"/>
<feColorMatrix in="SourceAlpha" type="matrix" values="0 0 0 0 0 0 0 0 0 0 0 0 0 0 0 0 0 0 127 0"/>
<feOffset dy="4"/>
<feGaussianBlur stdDeviation="1.5"/>
<feColorMatrix type="matrix" values="0 0 0 0 0 0 0 0 0 0 0 0 0 0 0 0 0 0 0.62 0"/>
<feBlend mode="normal" in2="BackgroundImageFix" result="effect1_dropShadow"/>
<feBlend mode="normal" in="SourceGraphic" in2="effect1_dropShadow" result="shape"/>
</filter>
<filter id="filter16_d" x="46.6006" y="11.5625" width="8.21678" height="14.3209" filterUnits="userSpaceOnUse" color-interpolation-filters="sRGB">
<feFlood flood-opacity="0" result="BackgroundImageFix"/>
<feColorMatrix in="SourceAlpha" type="matrix" values="0 0 0 0 0 0 0 0 0 0 0 0 0 0 0 0 0 0 127 0"/>
<feOffset dy="4"/>
<feGaussianBlur stdDeviation="1.5"/>
<feColorMatrix type="matrix" values="0 0 0 0 0 0 0 0 0 0 0 0 0 0 0 0 0 0 0.62 0"/>
<feBlend mode="normal" in2="BackgroundImageFix" result="effect1_dropShadow"/>
<feBlend mode="normal" in="SourceGraphic" in2="effect1_dropShadow" result="shape"/>
</filter>
<filter id="filter17_d" x="47.1123" y="29" width="8.58823" height="12.8353" filterUnits="userSpaceOnUse" color-interpolation-filters="sRGB">
<feFlood flood-opacity="0" result="BackgroundImageFix"/>
<feColorMatrix in="SourceAlpha" type="matrix" values="0 0 0 0 0 0 0 0 0 0 0 0 0 0 0 0 0 0 127 0"/>
<feOffset dy="4"/>
<feGaussianBlur stdDeviation="1.5"/>
<feColorMatrix type="matrix" values="0 0 0 0 0 0 0 0 0 0 0 0 0 0 0 0 0 0 0.62 0"/>
<feBlend mode="normal" in2="BackgroundImageFix" result="effect1_dropShadow"/>
<feBlend mode="normal" in="SourceGraphic" in2="effect1_dropShadow" result="shape"/>
</filter>
<filter id="filter18_d" x="44.3008" y="17.6133" width="10.8" height="10.2879" filterUnits="userSpaceOnUse" color-interpolation-filters="sRGB">
<feFlood flood-opacity="0" result="BackgroundImageFix"/>
<feColorMatrix in="SourceAlpha" type="matrix" values="0 0 0 0 0 0 0 0 0 0 0 0 0 0 0 0 0 0 127 0"/>
<feOffset dy="4"/>
<feGaussianBlur stdDeviation="1.5"/>
<feColorMatrix type="matrix" values="0 0 0 0 0 0 0 0 0 0 0 0 0 0 0 0 0 0 0.62 0"/>
<feBlend mode="normal" in2="BackgroundImageFix" result="effect1_dropShadow"/>
<feBlend mode="normal" in="SourceGraphic" in2="effect1_dropShadow" result="shape"/>
</filter>
<filter id="filter19_d" x="40.9033" y="10.5703" width="10.3972" height="10.8299" filterUnits="userSpaceOnUse" color-interpolation-filters="sRGB">
<feFlood flood-opacity="0" result="BackgroundImageFix"/>
<feColorMatrix in="SourceAlpha" type="matrix" values="0 0 0 0 0 0 0 0 0 0 0 0 0 0 0 0 0 0 127 0"/>
<feOffset dy="4"/>
<feGaussianBlur stdDeviation="1.5"/>
<feColorMatrix type="matrix" values="0 0 0 0 0 0 0 0 0 0 0 0 0 0 0 0 0 0 0.62 0"/>
<feBlend mode="normal" in2="BackgroundImageFix" result="effect1_dropShadow"/>
<feBlend mode="normal" in="SourceGraphic" in2="effect1_dropShadow" result="shape"/>
</filter>
<filter id="filter20_d" x="49.2539" y="27.3984" width="9.74678" height="11.2001" filterUnits="userSpaceOnUse" color-interpolation-filters="sRGB">
<feFlood flood-opacity="0" result="BackgroundImageFix"/>
<feColorMatrix in="SourceAlpha" type="matrix" values="0 0 0 0 0 0 0 0 0 0 0 0 0 0 0 0 0 0 127 0"/>
<feOffset dy="4"/>
<feGaussianBlur stdDeviation="1.5"/>
<feColorMatrix type="matrix" values="0 0 0 0 0 0 0 0 0 0 0 0 0 0 0 0 0 0 0.62 0"/>
<feBlend mode="normal" in2="BackgroundImageFix" result="effect1_dropShadow"/>
<feBlend mode="normal" in="SourceGraphic" in2="effect1_dropShadow" result="shape"/>
</filter>
<filter id="filter21_d" x="49.2002" y="18.8867" width="8.29996" height="12.113" filterUnits="userSpaceOnUse" color-interpolation-filters="sRGB">
<feFlood flood-opacity="0" result="BackgroundImageFix"/>
<feColorMatrix in="SourceAlpha" type="matrix" values="0 0 0 0 0 0 0 0 0 0 0 0 0 0 0 0 0 0 127 0"/>
<feOffset dy="4"/>
<feGaussianBlur stdDeviation="1.5"/>
<feColorMatrix type="matrix" values="0 0 0 0 0 0 0 0 0 0 0 0 0 0 0 0 0 0 0.62 0"/>
<feBlend mode="normal" in2="BackgroundImageFix" result="effect1_dropShadow"/>
<feBlend mode="normal" in="SourceGraphic" in2="effect1_dropShadow" result="shape"/>
</filter>
<filter id="filter22_d" x="43.5156" y="36.3984" width="8.88503" height="12" filterUnits="userSpaceOnUse" color-interpolation-filters="sRGB">
<feFlood flood-opacity="0" result="BackgroundImageFix"/>
<feColorMatrix in="SourceAlpha" type="matrix" values="0 0 0 0 0 0 0 0 0 0 0 0 0 0 0 0 0 0 127 0"/>
<feOffset dy="4"/>
<feGaussianBlur stdDeviation="1.5"/>
<feColorMatrix type="matrix" values="0 0 0 0 0 0 0 0 0 0 0 0 0 0 0 0 0 0 0.62 0"/>
<feBlend mode="normal" in2="BackgroundImageFix" result="effect1_dropShadow"/>
<feBlend mode="normal" in="SourceGraphic" in2="effect1_dropShadow" result="shape"/>
</filter>
<filter id="filter23_d" x="41.7002" y="41.3984" width="11.2" height="8.81656" filterUnits="userSpaceOnUse" color-interpolation-filters="sRGB">
<feFlood flood-opacity="0" result="BackgroundImageFix"/>
<feColorMatrix in="SourceAlpha" type="matrix" values="0 0 0 0 0 0 0 0 0 0 0 0 0 0 0 0 0 0 127 0"/>
<feOffset dy="4"/>
<feGaussianBlur stdDeviation="1.5"/>
<feColorMatrix type="matrix" values="0 0 0 0 0 0 0 0 0 0 0 0 0 0 0 0 0 0 0.62 0"/>
<feBlend mode="normal" in2="BackgroundImageFix" result="effect1_dropShadow"/>
<feBlend mode="normal" in="SourceGraphic" in2="effect1_dropShadow" result="shape"/>
</filter>
<filter id="filter24_d" x="37.959" y="40.3984" width="9.4357" height="11.4" filterUnits="userSpaceOnUse" color-interpolation-filters="sRGB">
<feFlood flood-opacity="0" result="BackgroundImageFix"/>
<feColorMatrix in="SourceAlpha" type="matrix" values="0 0 0 0 0 0 0 0 0 0 0 0 0 0 0 0 0 0 127 0"/>
<feOffset dy="4"/>
<feGaussianBlur stdDeviation="1.5"/>
<feColorMatrix type="matrix" values="0 0 0 0 0 0 0 0 0 0 0 0 0 0 0 0 0 0 0.62 0"/>
<feBlend mode="normal" in2="BackgroundImageFix" result="effect1_dropShadow"/>
<feBlend mode="normal" in="SourceGraphic" in2="effect1_dropShadow" result="shape"/>
</filter>
<filter id="filter25_d" x="47.2002" y="23" width="9.10412" height="11.7999" filterUnits="userSpaceOnUse" color-interpolation-filters="sRGB">
<feFlood flood-opacity="0" result="BackgroundImageFix"/>
<feColorMatrix in="SourceAlpha" type="matrix" values="0 0 0 0 0 0 0 0 0 0 0 0 0 0 0 0 0 0 127 0"/>
<feOffset dy="4"/>
<feGaussianBlur stdDeviation="1.5"/>
<feColorMatrix type="matrix" values="0 0 0 0 0 0 0 0 0 0 0 0 0 0 0 0 0 0 0.62 0"/>
<feBlend mode="normal" in2="BackgroundImageFix" result="effect1_dropShadow"/>
<feBlend mode="normal" in="SourceGraphic" in2="effect1_dropShadow" result="shape"/>
</filter>
<filter id="filter26_d" x="46.2939" y="12.1992" width="6.91845" height="11.5" filterUnits="userSpaceOnUse" color-interpolation-filters="sRGB">
<feFlood flood-opacity="0" result="BackgroundImageFix"/>
<feColorMatrix in="SourceAlpha" type="matrix" values="0 0 0 0 0 0 0 0 0 0 0 0 0 0 0 0 0 0 127 0"/>
<feOffset dy="4"/>
<feGaussianBlur stdDeviation="1.5"/>
<feColorMatrix type="matrix" values="0 0 0 0 0 0 0 0 0 0 0 0 0 0 0 0 0 0 0.62 0"/>
<feBlend mode="normal" in2="BackgroundImageFix" result="effect1_dropShadow"/>
<feBlend mode="normal" in="SourceGraphic" in2="effect1_dropShadow" result="shape"/>
</filter>
<filter id="filter27_d" x="44.8008" y="14.8359" width="8" height="8.96174" filterUnits="userSpaceOnUse" color-interpolation-filters="sRGB">
<feFlood flood-opacity="0" result="BackgroundImageFix"/>
<feColorMatrix in="SourceAlpha" type="matrix" values="0 0 0 0 0 0 0 0 0 0 0 0 0 0 0 0 0 0 127 0"/>
<feOffset dy="4"/>
<feGaussianBlur stdDeviation="1.5"/>
<feColorMatrix type="matrix" values="0 0 0 0 0 0 0 0 0 0 0 0 0 0 0 0 0 0 0.62 0"/>
<feBlend mode="normal" in2="BackgroundImageFix" result="effect1_dropShadow"/>
<feBlend mode="normal" in="SourceGraphic" in2="effect1_dropShadow" result="shape"/>
</filter>
<filter id="filter28_d" x="49.3008" y="24.9453" width="7.17117" height="8.35521" filterUnits="userSpaceOnUse" color-interpolation-filters="sRGB">
<feFlood flood-opacity="0" result="BackgroundImageFix"/>
<feColorMatrix in="SourceAlpha" type="matrix" values="0 0 0 0 0 0 0 0 0 0 0 0 0 0 0 0 0 0 127 0"/>
<feOffset dy="4"/>
<feGaussianBlur stdDeviation="1.5"/>
<feColorMatrix type="matrix" values="0 0 0 0 0 0 0 0 0 0 0 0 0 0 0 0 0 0 0.62 0"/>
<feBlend mode="normal" in2="BackgroundImageFix" result="effect1_dropShadow"/>
<feBlend mode="normal" in="SourceGraphic" in2="effect1_dropShadow" result="shape"/>
</filter>
<filter id="filter29_d" x="47.3008" y="34" width="7.20001" height="8.69995" filterUnits="userSpaceOnUse" color-interpolation-filters="sRGB">
<feFlood flood-opacity="0" result="BackgroundImageFix"/>
<feColorMatrix in="SourceAlpha" type="matrix" values="0 0 0 0 0 0 0 0 0 0 0 0 0 0 0 0 0 0 127 0"/>
<feOffset dy="4"/>
<feGaussianBlur stdDeviation="1.5"/>
<feColorMatrix type="matrix" values="0 0 0 0 0 0 0 0 0 0 0 0 0 0 0 0 0 0 0.62 0"/>
<feBlend mode="normal" in2="BackgroundImageFix" result="effect1_dropShadow"/>
<feBlend mode="normal" in="SourceGraphic" in2="effect1_dropShadow" result="shape"/>
</filter>
<filter id="filter30_d" x="40.7451" y="42.5977" width="7.45514" height="7.90002" filterUnits="userSpaceOnUse" color-interpolation-filters="sRGB">
<feFlood flood-opacity="0" result="BackgroundImageFix"/>
<feColorMatrix in="SourceAlpha" type="matrix" values="0 0 0 0 0 0 0 0 0 0 0 0 0 0 0 0 0 0 127 0"/>
<feOffset dy="4"/>
<feGaussianBlur stdDeviation="1.5"/>
<feColorMatrix type="matrix" values="0 0 0 0 0 0 0 0 0 0 0 0 0 0 0 0 0 0 0.62 0"/>
<feBlend mode="normal" in2="BackgroundImageFix" result="effect1_dropShadow"/>
<feBlend mode="normal" in="SourceGraphic" in2="effect1_dropShadow" result="shape"/>
</filter>
<filter id="filter31_d" x="45.4004" y="36.8008" width="7.70001" height="8.80005" filterUnits="userSpaceOnUse" color-interpolation-filters="sRGB">
<feFlood flood-opacity="0" result="BackgroundImageFix"/>
<feColorMatrix in="SourceAlpha" type="matrix" values="0 0 0 0 0 0 0 0 0 0 0 0 0 0 0 0 0 0 127 0"/>
<feOffset dy="4"/>
<feGaussianBlur stdDeviation="1.5"/>
<feColorMatrix type="matrix" values="0 0 0 0 0 0 0 0 0 0 0 0 0 0 0 0 0 0 0.62 0"/>
<feBlend mode="normal" in2="BackgroundImageFix" result="effect1_dropShadow"/>
<feBlend mode="normal" in="SourceGraphic" in2="effect1_dropShadow" result="shape"/>
</filter>
<filter id="filter32_d" x="49.8008" y="23.5977" width="6.60001" height="9.19995" filterUnits="userSpaceOnUse" color-interpolation-filters="sRGB">
<feFlood flood-opacity="0" result="BackgroundImageFix"/>
<feColorMatrix in="SourceAlpha" type="matrix" values="0 0 0 0 0 0 0 0 0 0 0 0 0 0 0 0 0 0 127 0"/>
<feOffset dy="4"/>
<feGaussianBlur stdDeviation="1.5"/>
<feColorMatrix type="matrix" values="0 0 0 0 0 0 0 0 0 0 0 0 0 0 0 0 0 0 0.62 0"/>
<feBlend mode="normal" in2="BackgroundImageFix" result="effect1_dropShadow"/>
<feBlend mode="normal" in="SourceGraphic" in2="effect1_dropShadow" result="shape"/>
</filter>
<filter id="filter33_d" x="48.6006" y="19.8984" width="7.29999" height="9.1001" filterUnits="userSpaceOnUse" color-interpolation-filters="sRGB">
<feFlood flood-opacity="0" result="BackgroundImageFix"/>
<feColorMatrix in="SourceAlpha" type="matrix" values="0 0 0 0 0 0 0 0 0 0 0 0 0 0 0 0 0 0 127 0"/>
<feOffset dy="4"/>
<feGaussianBlur stdDeviation="1.5"/>
<feColorMatrix type="matrix" values="0 0 0 0 0 0 0 0 0 0 0 0 0 0 0 0 0 0 0.62 0"/>
<feBlend mode="normal" in2="BackgroundImageFix" result="effect1_dropShadow"/>
<feBlend mode="normal" in="SourceGraphic" in2="effect1_dropShadow" result="shape"/>
</filter>
<filter id="filter34_d" x="44.2002" y="13.5977" width="7.59998" height="8.90002" filterUnits="userSpaceOnUse" color-interpolation-filters="sRGB">
<feFlood flood-opacity="0" result="BackgroundImageFix"/>
<feColorMatrix in="SourceAlpha" type="matrix" values="0 0 0 0 0 0 0 0 0 0 0 0 0 0 0 0 0 0 127 0"/>
<feOffset dy="4"/>
<feGaussianBlur stdDeviation="1.5"/>
<feColorMatrix type="matrix" values="0 0 0 0 0 0 0 0 0 0 0 0 0 0 0 0 0 0 0.62 0"/>
<feBlend mode="normal" in2="BackgroundImageFix" result="effect1_dropShadow"/>
<feBlend mode="normal" in="SourceGraphic" in2="effect1_dropShadow" result="shape"/>
</filter>
<filter id="filter35_d" x="17.8799" y="21" width="28.9544" height="20" filterUnits="userSpaceOnUse" color-interpolation-filters="sRGB">
<feFlood flood-opacity="0" result="BackgroundImageFix"/>
<feColorMatrix in="SourceAlpha" type="matrix" values="0 0 0 0 0 0 0 0 0 0 0 0 0 0 0 0 0 0 127 0"/>
<feOffset dy="3"/>
<feGaussianBlur stdDeviation="1.5"/>
<feColorMatrix type="matrix" values="0 0 0 0 0 0 0 0 0 0 0 0 0 0 0 0 0 0 0.62 0"/>
<feBlend mode="normal" in2="BackgroundImageFix" result="effect1_dropShadow"/>
<feBlend mode="normal" in="SourceGraphic" in2="effect1_dropShadow" result="shape"/>
</filter>
<radialGradient id="paint0_radial" cx="0" cy="0" r="1" gradientUnits="userSpaceOnUse" gradientTransform="translate(31.5 27.5) rotate(45) scale(38.8909)">
<stop stop-color="#EAEAEA"/>
<stop offset="1" stop-color="#FFFAFA"/>
</radialGradient>
<linearGradient id="paint1_linear" x1="51.5372" y1="34.8945" x2="51.5372" y2="37.9132" gradientUnits="userSpaceOnUse">
<stop stop-color="#353535"/>
<stop offset="1"/>
</linearGradient>
<linearGradient id="paint2_linear" x1="12.8396" y1="11.3984" x2="12.8396" y2="19.1985" gradientUnits="userSpaceOnUse">
<stop stop-color="#353535"/>
<stop offset="1"/>
</linearGradient>
<linearGradient id="paint3_linear" x1="10.1429" y1="18.9961" x2="10.1429" y2="26.6917" gradientUnits="userSpaceOnUse">
<stop stop-color="#353535"/>
<stop offset="1"/>
</linearGradient>
<linearGradient id="paint4_linear" x1="9.28363" y1="27.4258" x2="9.28363" y2="31.9975" gradientUnits="userSpaceOnUse">
<stop stop-color="#353535"/>
<stop offset="1"/>
</linearGradient>
<linearGradient id="paint5_linear" x1="12.0944" y1="29" x2="12.0944" y2="35.775" gradientUnits="userSpaceOnUse">
<stop stop-color="#353535"/>
<stop offset="1"/>
</linearGradient>
<linearGradient id="paint6_linear" x1="11.9625" y1="34.8398" x2="11.9625" y2="37.8809" gradientUnits="userSpaceOnUse">
<stop stop-color="#353535"/>
<stop offset="1"/>
</linearGradient>
<linearGradient id="paint7_linear" x1="17.1504" y1="10.6094" x2="17.1504" y2="14.7656" gradientUnits="userSpaceOnUse">
<stop stop-color="#353535"/>
<stop offset="1"/>
</linearGradient>
<linearGradient id="paint8_linear" x1="13.3378" y1="17.7305" x2="13.3378" y2="21.3004" gradientUnits="userSpaceOnUse">
<stop stop-color="#353535"/>
<stop offset="1"/>
</linearGradient>
<linearGradient id="paint9_linear" x1="16.6006" y1="41.2891" x2="16.6006" y2="43.3022" gradientUnits="userSpaceOnUse">
<stop stop-color="#353535"/>
<stop offset="1"/>
</linearGradient>
<linearGradient id="paint10_linear" x1="11.4957" y1="23.1992" x2="11.4957" y2="28.6992" gradientUnits="userSpaceOnUse">
<stop stop-color="#353535"/>
<stop offset="1"/>
</linearGradient>
<linearGradient id="paint11_linear" x1="15.9027" y1="36.3984" x2="15.9027" y2="41.4985" gradientUnits="userSpaceOnUse">
<stop stop-color="#353535"/>
<stop offset="1"/>
</linearGradient>
<linearGradient id="paint12_linear" x1="20.6207" y1="40.5" x2="20.6207" y2="44.7" gradientUnits="userSpaceOnUse">
<stop stop-color="#353535"/>
<stop offset="1"/>
</linearGradient>
<linearGradient id="paint13_linear" x1="14.7004" y1="14.5977" x2="14.7004" y2="16.1976" gradientUnits="userSpaceOnUse">
<stop stop-color="#353535"/>
<stop offset="1"/>
</linearGradient>
<linearGradient id="paint14_linear" x1="14.5508" y1="37.1992" x2="14.5508" y2="39.0992" gradientUnits="userSpaceOnUse">
<stop stop-color="#353535"/>
<stop offset="1"/>
</linearGradient>
<linearGradient id="paint15_linear" x1="10.8904" y1="23.5977" x2="10.8904" y2="25.6976" gradientUnits="userSpaceOnUse">
<stop stop-color="#353535"/>
<stop offset="1"/>
</linearGradient>
<linearGradient id="paint16_linear" x1="11.4217" y1="30.6992" x2="11.4217" y2="32.0795" gradientUnits="userSpaceOnUse">
<stop stop-color="#353535"/>
<stop offset="1"/>
</linearGradient>
<linearGradient id="paint17_linear" x1="50.709" y1="11.5625" x2="50.709" y2="18.8834" gradientUnits="userSpaceOnUse">
<stop stop-color="#353535"/>
<stop offset="1"/>
</linearGradient>
<linearGradient id="paint18_linear" x1="51.4064" y1="29" x2="51.4064" y2="34.8353" gradientUnits="userSpaceOnUse">
<stop stop-color="#353535"/>
<stop offset="1"/>
</linearGradient>
<linearGradient id="paint19_linear" x1="49.7008" y1="17.6133" x2="49.7008" y2="20.9012" gradientUnits="userSpaceOnUse">
<stop stop-color="#353535"/>
<stop offset="1"/>
</linearGradient>
<linearGradient id="paint20_linear" x1="46.1019" y1="10.5703" x2="46.1019" y2="14.4002" gradientUnits="userSpaceOnUse">
<stop stop-color="#353535"/>
<stop offset="1"/>
</linearGradient>
<linearGradient id="paint21_linear" x1="54.1273" y1="27.3984" x2="54.1273" y2="31.5985" gradientUnits="userSpaceOnUse">
<stop stop-color="#353535"/>
<stop offset="1"/>
</linearGradient>
<linearGradient id="paint22_linear" x1="53.3502" y1="18.8867" x2="53.3502" y2="23.9998" gradientUnits="userSpaceOnUse">
<stop stop-color="#353535"/>
<stop offset="1"/>
</linearGradient>
<linearGradient id="paint23_linear" x1="47.9581" y1="36.3984" x2="47.9581" y2="41.3984" gradientUnits="userSpaceOnUse">
<stop stop-color="#353535"/>
<stop offset="1"/>
</linearGradient>
<linearGradient id="paint24_linear" x1="47.3002" y1="41.3984" x2="47.3002" y2="43.215" gradientUnits="userSpaceOnUse">
<stop stop-color="#353535"/>
<stop offset="1"/>
</linearGradient>
<linearGradient id="paint25_linear" x1="42.6768" y1="40.3984" x2="42.6768" y2="44.7985" gradientUnits="userSpaceOnUse">
<stop stop-color="#353535"/>
<stop offset="1"/>
</linearGradient>
<linearGradient id="paint26_linear" x1="51.7523" y1="23" x2="51.7523" y2="27.7999" gradientUnits="userSpaceOnUse">
<stop stop-color="#353535"/>
<stop offset="1"/>
</linearGradient>
<linearGradient id="paint27_linear" x1="49.7532" y1="12.1992" x2="49.7532" y2="16.6992" gradientUnits="userSpaceOnUse">
<stop stop-color="#353535"/>
<stop offset="1"/>
</linearGradient>
<linearGradient id="paint28_linear" x1="53.0502" y1="26.1328" x2="53.0502" y2="29.4537" gradientUnits="userSpaceOnUse">
<stop stop-color="#353535"/>
<stop offset="1"/>
</linearGradient>
<linearGradient id="paint29_linear" x1="52.6391" y1="19.8984" x2="52.6391" y2="22.0985" gradientUnits="userSpaceOnUse">
<stop stop-color="#353535"/>
<stop offset="1"/>
</linearGradient>
<linearGradient id="paint30_linear" x1="48.8008" y1="14.8359" x2="48.8008" y2="16.7977" gradientUnits="userSpaceOnUse">
<stop stop-color="#353535"/>
<stop offset="1"/>
</linearGradient>
<linearGradient id="paint31_linear" x1="52.8864" y1="24.9453" x2="52.8864" y2="26.3005" gradientUnits="userSpaceOnUse">
<stop stop-color="#353535"/>
<stop offset="1"/>
</linearGradient>
<linearGradient id="paint32_linear" x1="50.9008" y1="34" x2="50.9008" y2="35.7" gradientUnits="userSpaceOnUse">
<stop stop-color="#353535"/>
<stop offset="1"/>
</linearGradient>
<linearGradient id="paint33_linear" x1="44.4727" y1="42.5977" x2="44.4727" y2="43.4977" gradientUnits="userSpaceOnUse">
<stop stop-color="#353535"/>
<stop offset="1"/>
</linearGradient>
<linearGradient id="paint34_linear" x1="46.5502" y1="40.1992" x2="46.5502" y2="41.9993" gradientUnits="userSpaceOnUse">
<stop stop-color="#353535"/>
<stop offset="1"/>
</linearGradient>
<linearGradient id="paint35_linear" x1="49.2504" y1="36.8008" x2="49.2504" y2="38.6008" gradientUnits="userSpaceOnUse">
<stop stop-color="#353535"/>
<stop offset="1"/>
</linearGradient>
<linearGradient id="paint36_linear" x1="53.1008" y1="23.5977" x2="53.1008" y2="25.7976" gradientUnits="userSpaceOnUse">
<stop stop-color="#353535"/>
<stop offset="1"/>
</linearGradient>
<linearGradient id="paint37_linear" x1="52.2506" y1="19.8984" x2="52.2506" y2="21.9985" gradientUnits="userSpaceOnUse">
<stop stop-color="#353535"/>
<stop offset="1"/>
</linearGradient>
<linearGradient id="paint38_linear" x1="48.0002" y1="13.5977" x2="48.0002" y2="15.4977" gradientUnits="userSpaceOnUse">
<stop stop-color="#353535"/>
<stop offset="1"/>
</linearGradient>
<linearGradient id="paint39_linear" x1="32" y1="16" x2="32" y2="40" gradientUnits="userSpaceOnUse">
<stop stop-color="#353535"/>
<stop offset="1"/>
</linearGradient>
</defs>
</svg>
