<svg width="56" height="56" viewBox="0 0 56 56" fill="none" xmlns="http://www.w3.org/2000/svg">
<path d="M55.3 27.7C55.3 42.9 42.9 55.3 27.6 55.3C12.4 55.3 0 42.9 0 27.7C0 12.4 12.4 0 27.6 0C42.9 0 55.3 12.4 55.3 27.7Z" fill="url(#paint0_linear)"/>
<path d="M45.4002 37.7981C45.1002 36.8981 46.0002 36.3981 46.3002 35.6981C46.6002 35.3981 47.1003 35.3981 47.5003 35.6981C48.2003 35.3981 49.1002 34.3981 49.6002 35.1981C50.1002 35.9981 49.1002 36.7981 48.3002 37.2981C47.4002 37.9981 46.4002 37.9981 45.4002 37.7981Z" fill="white"/>
<path d="M8.30031 18.3984C8.20031 16.6984 6.90033 15.1984 7.70033 13.3984C8.00033 12.7984 8.10028 11.9984 8.90028 11.3984C9.70028 12.8984 9.40031 14.2985 9.30031 15.7985C9.23364 15.9985 9.43362 16.0318 9.90028 15.8984C10.2003 15.8984 10.3003 15.9985 10.2003 16.1985C10.1003 17.1985 9.00032 17.6985 9.00032 18.7985C9.10032 18.9985 9.00028 19.1985 8.90028 19.1985C8.40028 19.1985 8.40031 18.6984 8.30031 18.3984Z" fill="white"/>
<path d="M6.09997 26.6012C6.09997 25.3012 6.09998 23.9011 5.29998 22.7011C4.99998 22.4011 4.89996 21.8011 4.89996 21.4011C4.89996 20.4011 4.69998 19.1012 5.79998 19.0012C6.69998 18.9012 6.3 20.3012 6.5 21.1012C6.6 21.2011 6.49998 21.5012 6.79998 21.5012C6.89998 21.5012 6.99997 21.3011 7.09997 21.3011C7.19997 21.3011 7.29996 21.2011 7.39996 21.2011C7.19996 22.0011 7.09996 22.8012 6.89996 23.6012C6.49996 24.4012 7.30001 25.1011 7.20001 25.9011C7.00001 26.4011 6.79997 26.9012 6.09997 26.6012Z" fill="white"/>
<path d="M6.50079 28.6974C6.70079 29.4974 6.90077 30.2975 7.10077 31.0975C7.30077 31.2975 7.30081 31.4974 7.20081 31.7974C7.10081 31.7974 7.00079 31.8975 7.00079 31.9975C5.30079 30.7975 3.30078 29.9975 3.30078 27.4975C4.70078 26.9975 4.80081 29.2974 6.20081 28.6974H6.50079Z" fill="white"/>
<path d="M8.20001 35.7C8.20001 34.3 7 33.3 7 32C7.5 31.7 7.50001 31.2 7.70001 30.7C7.90001 30.1 7.90001 29.4 8.70001 29C9.90001 31.3 8.49998 33.5 8.59998 35.7C8.49998 35.8 8.30001 35.8 8.20001 35.7Z" fill="white"/>
<path d="M8.20002 35.6996H8.59999C9.19999 36.3996 10 36.7996 10.3 37.7996C8.8 37.9996 7.4 37.8996 6.3 36.6996C6 36.2996 5.3 35.6997 5.8 35.0997C6.2 34.4997 6.80002 35.0996 7.20002 35.2996C7.60002 35.3996 7.90002 35.4996 8.20002 35.6996Z" fill="white"/>
<path d="M10.9004 14.6C11.7004 13.5 12.3004 12.3999 13.2004 11.3999C13.7004 10.8999 14.4004 10.3999 15.4004 10.6999C15.2004 13.1 13.2004 13.6999 11.5004 14.6999C11.3004 14.7999 11.1004 14.8 10.9004 14.6Z" fill="white"/>
<path d="M7.40057 21.2005C7.30057 21.2005 7.20059 21.3004 7.10059 21.3004C7.20059 20.2004 7.8006 19.3004 8.3006 18.4004C8.6006 18.3004 8.50061 19.3004 9.00061 18.8004C9.90061 18.4004 10.8006 17.1005 11.5006 18.1005C11.9006 18.6005 10.6006 19.6005 9.70062 20.1005C9.00062 20.6005 8.20057 20.9005 7.40057 21.2005Z" fill="white"/>
<path d="M15.1006 43.1981C13.2006 42.9981 11.1006 43.6981 9.60059 41.4981H12.3006C12.5006 41.2981 12.7006 41.198 13.0006 41.398C13.9006 41.398 14.3006 42.4981 15.2006 42.6981C15.4006 42.6981 15.6006 42.6981 15.6006 42.9981C15.5006 43.2981 15.3006 43.3981 15.1006 43.1981Z" fill="white"/>
<path d="M6.50024 28.6992H6.20025C6.00025 27.9992 5.90022 27.2992 6.10022 26.5992C6.60022 26.3992 6.9002 26.1992 6.9002 25.6992C6.6002 25.0992 7.00023 24.7993 7.30023 24.4993C7.80023 24.0993 8.10024 23.3992 9.00024 23.1992C8.90024 24.7992 8.4002 26.0992 7.4002 27.1992C7.0002 27.5992 6.50024 27.9992 6.50024 28.6992Z" fill="white"/>
<path d="M13.0007 41.3984C12.7007 41.3984 12.5007 41.3985 12.3007 41.4985C12.2007 41.1985 12.2007 40.8985 12.1007 40.6985C10.6007 39.5985 10.5007 38.0984 11.3007 36.3984C13.0007 37.6984 12.7007 39.6984 13.0007 41.3984Z" fill="white"/>
<path d="M15.1 43.2C15.3 43.1 15.6 43 15.2 42.7C15.1 42 15.1 41.3 15 40.5C17.1 41.1 16.8 43.3999 18.1 44.3999C18.2 44.4999 18.3 44.6 18.2 44.6C18.2 44.6666 18.1666 44.7 18.1 44.7C16.9 44.6 15.9 44 15.1 43.2Z" fill="white"/>
<path d="M10.9004 14.5977C11.1004 14.5977 11.3004 14.5976 11.5004 14.6976C11.1004 15.1976 10.7004 15.6976 10.2004 16.1976C10.1004 16.0976 10.0004 15.9976 9.90039 15.8976C10.0004 15.2976 10.5004 14.9977 10.9004 14.5977Z" fill="white"/>
<path d="M9.80078 37.5992C9.86745 37.4659 9.90076 37.3326 9.90076 37.1992C10.4008 37.7992 10.9008 38.3992 11.3008 38.8992C11.2008 38.9992 11.2008 39.0992 11.1008 39.0992C10.4008 38.8992 10.1008 38.0992 9.80078 37.5992Z" fill="white"/>
<path d="M7.3004 24.4977C7.2004 24.8977 7.10038 25.2976 6.90038 25.6976C6.20038 24.9976 6.50038 24.2977 6.90038 23.5977C7.10038 23.8977 7.2004 24.1977 7.3004 24.4977Z" fill="white"/>
<path d="M7.70001 30.6992C7.50001 31.1992 8.5 32.3993 7 31.9993C7 31.6993 6.99998 31.3992 7.09998 31.0992C7.29998 30.9992 7.50001 30.7992 7.70001 30.6992Z" fill="white"/>
<path d="M46.1006 12.198C46.3006 11.498 46.6006 11.2981 47.0006 11.9981C47.8006 13.3981 48.1006 14.9981 47.5006 16.5981C47.3006 17.2981 46.7006 17.898 47.2006 18.698C46.7006 19.098 46.4006 18.798 46.1006 18.298C45.9006 17.798 45.7006 17.298 45.6006 16.698C45.6006 16.498 45.6006 16.2981 45.6006 16.0981C46.3006 14.8981 45.7006 13.398 46.1006 12.198Z" fill="white"/>
<path d="M48.7005 31.6C48.2005 32.7 47.8005 33.6999 47.3005 34.7999C46.5005 34.9999 46.9005 34.3 46.7005 34C45.9005 32.4 46.0005 30.7 46.5005 29C47.9005 29.5 47.2005 31.1 48.3005 31.6C48.4005 31.4 48.5005 31.4 48.7005 31.6Z" fill="white"/>
<path d="M46.1008 18.3012C46.5008 18.5012 46.9008 18.6012 47.2008 18.7012C47.7008 19.3012 48.0008 20.0012 48.1008 20.9012C45.9008 20.7012 44.4008 19.6012 43.3008 17.7012C44.4008 17.3012 45.2008 18.4012 46.1008 18.3012Z" fill="white"/>
<path d="M44.3005 14.4002C42.2005 14.1002 41.0005 13.3002 40.2005 11.8002C40.0005 11.4002 39.7005 11.0002 40.1005 10.7002C40.4005 10.4002 40.9005 10.7002 41.2005 10.8002C42.8005 11.4002 43.2005 13.0002 44.3005 14.4002Z" fill="white"/>
<path d="M48.7007 31.5985H48.3007C48.1007 30.6985 48.6007 29.8985 48.7007 29.0985C49.0007 28.9985 49.2007 29.0984 49.4007 29.3984C50.2007 28.6984 50.6007 27.5984 52.0007 27.3984C51.9007 29.7984 50.5007 30.7985 48.7007 31.5985Z" fill="white"/>
<path d="M49.0002 19.8997C49.1002 19.4997 49.0002 18.9997 49.5002 18.8997C50.0002 18.7997 50.1002 19.2997 50.3002 19.6997C50.6002 20.4997 50.5001 21.2997 50.4001 22.0997C50.2001 22.8997 49.9002 23.9998 49.1002 23.9998C48.3002 23.9998 48.3002 22.8997 48.2002 22.0997C48.9002 21.4997 48.8002 20.6997 49.0002 19.8997Z" fill="white"/>
<path d="M45.4007 37.7985C44.7007 38.9985 43.9007 40.1984 42.6007 41.3984C42.3007 39.1984 42.8007 37.7984 44.0007 36.3984C44.8007 37.0984 44.2007 37.7984 44.2007 38.3984C44.6007 38.1984 45.0007 37.9985 45.4007 37.7985Z" fill="white"/>
<path d="M40.7002 42.5985C41.9002 40.6985 43.9001 41.7984 45.9001 41.3984C44.5001 43.1984 43.0002 43.4985 41.2002 42.9985C41.0002 42.8985 40.7002 42.8985 40.7002 42.5985Z" fill="white"/>
<path d="M37.1004 44.4985C38.3004 44.0985 38.0004 42.8985 38.5004 42.0985C39.0004 41.4985 39.4004 40.7984 40.2004 40.3984C40.8004 41.2984 39.8004 41.9985 40.0004 42.7985C40.1004 42.9985 40.0004 43.2985 39.9004 43.4985C39.1004 44.1985 38.2004 44.6985 37.1004 44.7985C37.0004 44.6985 36.9004 44.5985 37.0004 44.5985C37.0004 44.4985 37.1004 44.4985 37.1004 44.4985Z" fill="white"/>
<path d="M48.7002 27.7999C47.2002 26.6999 46.6002 25.2 46.2002 23C47.4002 23.7 47.9002 24.3999 48.3002 25.2999C48.8002 25.5999 49.2002 25.8999 49.3002 26.3999C49.0002 26.8999 49.8002 27.6999 48.7002 27.7999Z" fill="white"/>
<path d="M46.1002 12.1992C45.8002 13.6992 46.7002 15.2992 45.8002 16.6992C45.5002 16.2992 45.1002 15.9993 45.4002 15.4993C46.3002 14.4993 45.2002 13.0992 46.1002 12.1992Z" fill="white"/>
<path d="M48.7002 27.7985C49.3002 27.3985 49.0002 26.7985 49.0002 26.2985C49.1002 26.0985 49.3001 26.0985 49.4001 26.1985V29.3985C49.1001 29.5985 49.0002 29.1985 48.7002 29.0985C48.7002 28.6985 48.7002 28.2985 48.7002 27.7985Z" fill="white"/>
<path d="M48.9998 19.8984C48.8998 20.6984 49.8998 21.8985 48.1998 22.0985C47.5998 20.9985 49.3998 20.8984 48.9998 19.8984Z" fill="white"/>
<path d="M45.4008 15.4978C45.5008 15.8978 45.6008 16.2977 45.8008 16.6977L45.7008 16.7977L45.6008 16.6977C45.0008 16.1977 44.5008 15.6978 43.8008 14.9978C44.9008 14.4978 45.0008 15.2978 45.4008 15.4978Z" fill="white"/>
<path d="M49.4008 26.2006C49.3008 26.2006 49.2008 26.2005 49.0008 26.3005C48.7008 26.0005 48.4008 25.7005 48.3008 25.3005C49.7008 24.4005 49.5008 25.4006 49.4008 26.2006Z" fill="white"/>
<path d="M47.5008 35.7C47.1008 35.7 46.7008 35.7 46.3008 35.7C46.4008 35.2 46.9008 34.7 46.7008 34C46.9008 34.3 47.1008 34.5999 47.3008 34.7999C47.4008 35.0999 47.4008 35.4 47.5008 35.7Z" fill="white"/>
<path d="M39.9002 43.4977C39.5002 43.2977 40.0002 42.9976 40.0002 42.7976C40.2002 42.6976 40.4003 42.6977 40.7003 42.5977C40.8003 42.7977 41.0003 42.8977 41.2003 42.9977C40.8003 43.1977 40.4002 43.3977 39.9002 43.4977Z" fill="white"/>
<path d="M42.1002 41.9993L41.7002 41.8992C42.2002 41.2992 42.6002 40.7992 43.1002 40.1992C43.2002 40.3992 43.3001 40.2993 43.4001 40.4993C43.2001 41.0993 42.5002 41.5993 42.1002 41.9993Z" fill="white"/>
<path d="M44.8004 38.6008L44.4004 38.5009C44.9004 37.9009 45.4004 37.4008 45.9004 36.8008C45.9004 36.9008 46.0004 36.9009 46.1004 37.0009C45.9004 37.7009 45.3004 38.2008 44.8004 38.6008Z" fill="white"/>
<path d="M49.3008 25.5977C49.1674 25.6643 49.0675 25.7309 49.0008 25.7976C48.9008 25.0976 48.9008 24.3977 48.8008 23.5977C48.9341 23.5977 49.0675 23.5977 49.2008 23.5977C49.5008 24.1977 49.4008 24.9977 49.3008 25.5977Z" fill="white"/>
<path d="M48.9006 21.5985C48.8339 21.7318 48.7673 21.8652 48.7006 21.9985C48.3006 21.2985 47.9006 20.6985 47.6006 20.0985C47.7006 19.9985 47.7006 19.8984 47.9006 19.8984C48.5006 20.2984 48.7006 21.0985 48.9006 21.5985Z" fill="white"/>
<path d="M44.8002 15.0977L44.7002 15.4977C44.2002 14.8977 43.7002 14.3976 43.2002 13.7976C43.4002 13.7976 43.3002 13.6977 43.5002 13.5977C44.1002 13.8977 44.5002 14.5977 44.8002 15.0977Z" fill="white"/>
<path d="M19.48 23.18V27.44H26.24V29.64H19.48V35H16.88V21H27.1V23.18H19.48ZM32.2144 23.18V27.44H38.9744V29.64H32.2144V35H29.6144V21H39.8344V23.18H32.2144Z" fill="white"/>
<defs>
<linearGradient id="paint0_linear" x1="0" y1="0" x2="55" y2="55" gradientUnits="userSpaceOnUse">
<stop stop-color="#161616"/>
<stop offset="1" stop-color="#272727"/>
</linearGradient>
</defs>
</svg>
